# xmcd CD database file
#
# Track frame offsets:
#	150
#	9795
#	20389
#	27829
#	36018
#	46744
#	58164
#	66970
#	76858
#	88854
#	98221
#	110787
#
# Disc length: 1634 seconds
#
# Revision: 2
# Processed by: cddbd v1.5.2PL0 Copyright (c) Steve Scherf et al.
# Submitted via: CDex 1.51
#
DISCID=8d06600c
DTITLE=Johnny Cash - Johnny Cash With His Hot And Blue Guitar
DYEAR=1957
DGENRE=Country
TTITLE0=Rock Island Line
TTITLE1=I Heard That Lonesome Whistle
TTITLE2=If The Good Lord's Willing
TTITLE3=Country Boy
TTITLE4=Cry! Cry! Cry
TTITLE5=So Doggone Lonesome
TTITLE6=Remember Me (I'm The One Who L
TTITLE7=I Was There When It Happened
TTITLE8=I Walk The Line
TTITLE9=Wreck of the Old 97
TTITLE10=Folsom Prison Blues
TTITLE11=Doin' My Time
EXTD=YEAR: 1957
EXTT0=
EXTT1=
EXTT2=
EXTT3=
EXTT4=
EXTT5=
EXTT6=
EXTT7=
EXTT8=
EXTT9=
EXTT10=
EXTT11=
PLAYORDER=
